<?xml version="1.0" encoding="UTF-8"?>
<svg width="60px" height="61px" viewBox="0 0 60 61" version="1.1" xmlns="http://www.w3.org/2000/svg" xmlns:xlink="http://www.w3.org/1999/xlink">
    <!-- Generator: Sketch 52.6 (67491) - http://www.bohemiancoding.com/sketch -->
    <title>Group 12</title>
    <desc>Created with Sketch.</desc>
    <defs>
        <polygon id="path-1" points="0 0.0305084746 59.9694915 0.0305084746 59.9694915 59.9999492 0 59.9999492"></polygon>
    </defs>
    <g id="Page-1" stroke="none" stroke-width="1" fill="none" fill-rule="evenodd">
        <g id="Group-12">
            <g id="Group-3" transform="translate(0.000000, 0.477966)">
                <mask id="mask-2" fill="white">
                    <use xlink:href="#path-1"></use>
                </mask>
                <g id="Clip-2"></g>
                <path d="M29.9845932,0.0304576271 C13.4510339,0.0304576271 -0.000152542373,13.4816441 -0.000152542373,30.0152034 C-0.000152542373,46.5487627 13.4510339,59.9999492 29.9845932,59.9999492 C46.518661,59.9999492 59.9698475,46.5487627 59.9698475,30.0152034 C59.9698475,13.4816441 46.518661,0.0304576271 29.9845932,0.0304576271" id="Fill-1" fill="#2E6596" mask="url(#mask-2)"></path>
            </g>
            <path d="M31.2573051,18.2066949 C31.389,18.3002542 31.4444237,18.4680508 31.3956102,18.6216102 L30.7925593,20.5294068 C30.7579831,20.6392373 30.8835763,20.7292373 30.9761186,20.6611017 L32.5859492,19.4722881 C32.7156102,19.3761864 32.8925593,19.3751695 33.0237458,19.4687288 L34.6518814,20.6326271 C34.7454407,20.6992373 34.8695085,20.6072034 34.8334068,20.4983898 L34.2003559,18.5997458 C34.149,18.4466949 34.2023898,18.2783898 34.3325593,18.1822881 L35.9423898,16.9934746 C36.0349322,16.9248305 35.9856102,16.7778814 35.8706949,16.7788983 L33.869339,16.7951695 C33.7081525,16.7961864 33.5642542,16.6929661 33.5134068,16.5404237 L32.8798475,14.6417797 C32.8437458,14.5324576 32.688661,14.5339831 32.6540847,14.6438136 L32.0510339,16.5516102 C32.0022203,16.705678 31.8598475,16.8104237 31.698661,16.8119492 L29.6978136,16.8272034 C29.5823898,16.8282203 29.5356102,16.975678 29.6291695,17.0427966 L31.2573051,18.2066949 Z" id="Fill-4" fill="#FFFFFF"></path>
            <path d="M46.2935593,33.1644915 L44.2916949,33.1797458 C44.1310169,33.1812712 43.9871186,33.0785593 43.9357627,32.9255085 L43.3027119,31.0273729 C43.2666102,30.9180508 43.1115254,30.9190678 43.0769492,31.0288983 L42.4733898,32.9372034 C42.4250847,33.0907627 42.2827119,33.1960169 42.1215254,33.1970339 L40.1201695,33.2127966 C40.0052542,33.2138136 39.9584746,33.3612712 40.0520339,33.4283898 L41.6801695,34.5917797 C41.8113559,34.685339 41.8672881,34.8531356 41.8184746,35.0066949 L41.2154237,36.915 C41.180339,37.0248305 41.3059322,37.1148305 41.3989831,37.0461864 L43.0088136,35.8573729 C43.1384746,35.7612712 43.3154237,35.7597458 43.4461017,35.8538136 L45.0747458,37.0177119 C45.1683051,37.084322 45.2923729,36.9922881 45.2562712,36.8829661 L44.6232203,34.9848305 C44.5718644,34.8317797 44.6252542,34.6634746 44.7554237,34.5678814 L46.3652542,33.3790678 C46.4572881,33.3104237 46.4084746,33.1634746 46.2935593,33.1644915" id="Fill-6" fill="#FFFFFF"></path>
            <path d="M30.4275254,30.9960508 C30.5587119,31.0901186 30.6146441,31.2579153 30.5658305,31.4109661 L29.9622712,33.3192712 C29.9276949,33.4291017 30.0537966,33.5191017 30.1458305,33.4504576 L31.755661,32.2616441 C31.8858305,32.1660508 32.0622712,32.1645254 32.1939661,32.2580847 L33.8215932,33.4219831 C33.9151525,33.4885932 34.0397288,33.3970678 34.0036271,33.2877458 L33.3700678,31.3891017 C33.3192203,31.2365593 33.3726102,31.0682542 33.5022712,30.9721525 L35.1121017,29.783339 C35.2046441,29.7146949 35.1558305,29.5677458 35.0404068,29.5687627 L33.0395593,29.5845254 C32.8778644,29.5860508 32.7344746,29.4828305 32.6836271,29.3302881 L32.0500678,27.4316441 C32.0134576,27.322322 31.8583729,27.323339 31.8243051,27.4331695 L31.2207458,29.3414746 C31.1719322,29.4955424 31.0300678,29.6002881 30.8683729,29.6018136 L28.8675254,29.6170678 C28.7521017,29.6180847 28.705322,29.7655424 28.7993898,29.832661 L30.4275254,30.9960508 Z" id="Fill-8" fill="#FFFFFF"></path>
            <path d="M42.8454407,41.8006271 C42.1579831,41.9648644 41.4532373,42.0889322 40.7317119,42.1657119 C31.5262881,43.1450339 23.2712034,36.4763898 22.2918814,27.2719831 C21.8042542,22.6885932 23.2137458,18.3421525 25.8862881,15.0106271 C26.0332373,14.8280847 25.8430678,14.5707966 25.6213729,14.6465593 C18.0466271,17.2357119 13.1052712,25.0204576 14.5442542,33.3767288 C15.9705254,41.6628305 23.5157797,47.6811356 31.9122203,47.2392712 C36.3374746,47.0063898 40.2328983,45.1021525 43.0620508,42.1946949 C43.2257797,42.0268983 43.0732373,41.7462203 42.8454407,41.8006271" id="Fill-10" fill="#FFFFFF"></path>
        </g>
    </g>
</svg>