<?xml version="1.0" encoding="UTF-8"?>
<svg width="60px" height="61px" viewBox="0 0 60 61" version="1.1" xmlns="http://www.w3.org/2000/svg" xmlns:xlink="http://www.w3.org/1999/xlink">
    <!-- Generator: Sketch 52.6 (67491) - http://www.bohemiancoding.com/sketch -->
    <title>Group 14</title>
    <desc>Created with Sketch.</desc>
    <defs>
        <polygon id="path-1" points="0 0.0305084746 59.9694915 0.0305084746 59.9694915 59.9998475 0 59.9998475"></polygon>
    </defs>
    <g id="Page-1" stroke="none" stroke-width="1" fill="none" fill-rule="evenodd">
        <g id="Group-14">
            <g id="Group-22">
                <g id="Group-3" transform="translate(0.000000, 0.477966)">
                    <mask id="mask-2" fill="white">
                        <use xlink:href="#path-1"></use>
                    </mask>
                    <g id="Clip-2"></g>
                    <path d="M29.9844915,59.9998475 C46.5185593,59.9998475 59.9697458,46.548661 59.9697458,30.0151017 C59.9697458,13.4820508 46.5185593,0.0303559322 29.9844915,0.0303559322 C13.4509322,0.0303559322 -0.000254237288,13.4820508 -0.000254237288,30.0151017 C-0.000254237288,46.548661 13.4509322,59.9998475 29.9844915,59.9998475" id="Fill-1" fill="#FBA919" mask="url(#mask-2)"></path>
                </g>
                <path d="M28.0468983,15.8209322 L32.0755424,15.8209322 C32.2977458,15.8209322 32.4467288,15.5916102 32.3562203,15.3882203 L30.3416441,10.8770339 C30.233339,10.6344915 29.8891017,10.6344915 29.7807966,10.8770339 L27.7662203,15.3882203 C27.6757119,15.5916102 27.8246949,15.8209322 28.0468983,15.8209322" id="Fill-4" fill="#FFFFFF"></path>
                <path d="M43.1968983,22.6292542 C43.3458814,22.7945085 43.6153729,22.7523051 43.7063898,22.5489153 L45.7184237,18.0367119 C45.8262203,17.7941695 45.5963898,17.5373898 45.343678,17.6187458 L40.6407966,19.1329831 C40.4292712,19.2016271 40.3575763,19.4650169 40.5060508,19.6312881 L43.1968983,22.6292542 Z" id="Fill-6" fill="#FFFFFF"></path>
                <path d="M45.079322,28.9558475 L45.0823729,32.9844915 C45.0823729,33.2066949 45.3116949,33.3551695 45.5145763,33.264661 L50.0247458,31.2465254 C50.2667797,31.1377119 50.2667797,30.7934746 50.0242373,30.6851695 L45.5115254,28.674661 C45.3081356,28.584661 45.0788136,28.7331356 45.079322,28.9558475" id="Fill-8" fill="#FFFFFF"></path>
                <path d="M16.2631017,22.5488136 C16.3541186,22.7522034 16.6236102,22.7944068 16.7725932,22.6291525 L19.4634407,19.6311864 C19.6119153,19.4654237 19.5402203,19.2015254 19.3286949,19.1328814 L14.6258136,17.6191525 C14.3731017,17.5377966 14.1432712,17.7940678 14.2510678,18.0366102 L16.2631017,22.5488136 Z" id="Fill-10" fill="#FFFFFF"></path>
                <path d="M32.0754915,46.409339 L28.0468475,46.409339 C27.8246441,46.409339 27.675661,46.638661 27.7661695,46.8420508 L29.7807458,51.3532373 C29.8890508,51.5957797 30.2332881,51.5957797 30.3415932,51.3532373 L32.3561695,46.8420508 C32.446678,46.638661 32.2976949,46.409339 32.0754915,46.409339" id="Fill-12" fill="#FFFFFF"></path>
                <path d="M43.706339,39.560339 C43.615322,39.3574576 43.3458305,39.3147458 43.1968475,39.4805085 L40.506,42.4784746 C40.3575254,42.6442373 40.4292203,42.9081356 40.6407458,42.9762712 L45.3436271,44.49 C45.596339,44.5713559 45.8261695,44.3155932 45.7183729,44.0725424 L43.706339,39.560339 Z" id="Fill-14" fill="#FFFFFF"></path>
                <path d="M16.7725932,39.4804068 C16.6236102,39.3146441 16.3541186,39.3573559 16.2631017,39.5602373 L14.2510678,44.0724407 C14.1432712,44.3154915 14.3731017,44.5717627 14.6258136,44.4904068 L19.3286949,42.9761695 C19.5402203,42.9080339 19.6119153,42.6446441 19.4634407,42.4783729 L16.7725932,39.4804068 Z" id="Fill-16" fill="#FFFFFF"></path>
                <path d="M14.8871695,32.9844407 L14.8902203,28.9557966 C14.8907288,28.7330847 14.6614068,28.5846102 14.4580169,28.6746102 L9.94530508,30.6856271 C9.70276271,30.7934237 9.70276271,31.137661 9.94479661,31.2464746 L14.4544576,33.2646102 C14.6578475,33.3551186 14.8871695,33.2066441 14.8871695,32.9844407" id="Fill-18" fill="#FFFFFF"></path>
                <path d="M29.9403051,43.1578983 C36.6043729,43.1578983 42.0069153,37.7553559 42.0069153,31.0912881 C42.0069153,24.4267119 36.6043729,19.0241695 29.9403051,19.0241695 C23.2762373,19.0241695 17.8736949,24.4267119 17.8736949,31.0912881 C17.8736949,37.7553559 23.2762373,43.1578983 29.9403051,43.1578983" id="Fill-20" fill="#FFFFFF"></path>
            </g>
        </g>
    </g>
</svg>